<mxfile host="app.diagrams.net" modified="2023-08-31T12:46:32.693Z" agent="Mozilla/5.0 (Windows NT 10.0; Win64; x64) AppleWebKit/537.36 (KHTML, like Gecko) Chrome/116.0.0.0 Safari/537.36" etag="3KOKhF5SQrIn9Q4J0jJt" version="21.7.1" type="github">
  <diagram name="Page-1" id="b5b7bab2-c9e2-2cf4-8b2a-24fd1a2a6d21">
    <mxGraphModel dx="3407" dy="1162" grid="1" gridSize="10" guides="1" tooltips="1" connect="1" arrows="1" fold="1" page="1" pageScale="1" pageWidth="827" pageHeight="1169" background="none" math="0" shadow="0">
      <root>
        <mxCell id="0" />
        <mxCell id="1" parent="0" />
        <mxCell id="6e0c8c40b5770093-71" style="edgeStyle=elbowEdgeStyle;rounded=0;html=1;dashed=1;labelBackgroundColor=none;startFill=0;endArrow=open;endFill=0;endSize=10;fontFamily=Verdana;fontSize=10;elbow=vertical;" parent="1" edge="1">
          <mxGeometry relative="1" as="geometry">
            <mxPoint x="50.000000000000455" y="370.13904761904746" as="sourcePoint" />
            <mxPoint x="140" y="370.13904761904746" as="targetPoint" />
          </mxGeometry>
        </mxCell>
        <mxCell id="iW_rK__zYwqqhJCxbNX6-15" value="DATA MANAGEMENT&amp;nbsp;" style="shape=folder;fontStyle=1;spacingTop=10;tabWidth=50;tabHeight=17;tabPosition=left;html=1;rounded=0;shadow=0;comic=0;labelBackgroundColor=none;strokeWidth=1;fontFamily=Verdana;fontSize=10;align=center;" vertex="1" parent="1">
          <mxGeometry x="790" y="1770" width="140" height="70" as="geometry" />
        </mxCell>
        <mxCell id="iW_rK__zYwqqhJCxbNX6-67" style="edgeStyle=orthogonalEdgeStyle;rounded=0;orthogonalLoop=1;jettySize=auto;html=1;entryX=0.25;entryY=1;entryDx=0;entryDy=0;entryPerimeter=0;exitX=0;exitY=0;exitDx=115;exitDy=17;exitPerimeter=0;" edge="1" parent="1" source="iW_rK__zYwqqhJCxbNX6-25" target="iW_rK__zYwqqhJCxbNX6-15">
          <mxGeometry relative="1" as="geometry" />
        </mxCell>
        <mxCell id="iW_rK__zYwqqhJCxbNX6-71" style="edgeStyle=orthogonalEdgeStyle;rounded=0;orthogonalLoop=1;jettySize=auto;html=1;entryX=0.5;entryY=1;entryDx=0;entryDy=0;entryPerimeter=0;" edge="1" parent="1" source="iW_rK__zYwqqhJCxbNX6-25" target="iW_rK__zYwqqhJCxbNX6-28">
          <mxGeometry relative="1" as="geometry">
            <Array as="points">
              <mxPoint x="920" y="2050" />
              <mxPoint x="185" y="2050" />
            </Array>
          </mxGeometry>
        </mxCell>
        <mxCell id="iW_rK__zYwqqhJCxbNX6-25" value="AS INFO MANAGEMENT&amp;nbsp;" style="shape=folder;fontStyle=1;spacingTop=10;tabWidth=50;tabHeight=17;tabPosition=left;html=1;rounded=0;shadow=0;comic=0;labelBackgroundColor=none;strokeWidth=1;fontFamily=Verdana;fontSize=10;align=center;" vertex="1" parent="1">
          <mxGeometry x="800" y="1940" width="180" height="90" as="geometry" />
        </mxCell>
        <mxCell id="iW_rK__zYwqqhJCxbNX6-68" style="edgeStyle=orthogonalEdgeStyle;rounded=0;orthogonalLoop=1;jettySize=auto;html=1;entryX=0.5;entryY=0;entryDx=0;entryDy=0;" edge="1" parent="1" source="6e0c8c40b5770093-28" target="iW_rK__zYwqqhJCxbNX6-43">
          <mxGeometry relative="1" as="geometry" />
        </mxCell>
        <mxCell id="iW_rK__zYwqqhJCxbNX6-69" style="edgeStyle=orthogonalEdgeStyle;rounded=0;orthogonalLoop=1;jettySize=auto;html=1;entryX=0;entryY=0;entryDx=0;entryDy=17;entryPerimeter=0;exitX=0.75;exitY=1;exitDx=0;exitDy=0;exitPerimeter=0;" edge="1" parent="1" source="6e0c8c40b5770093-28" target="iW_rK__zYwqqhJCxbNX6-25">
          <mxGeometry relative="1" as="geometry">
            <Array as="points">
              <mxPoint x="620" y="1820" />
              <mxPoint x="730" y="1820" />
              <mxPoint x="730" y="1957" />
            </Array>
          </mxGeometry>
        </mxCell>
        <mxCell id="iW_rK__zYwqqhJCxbNX6-70" style="edgeStyle=orthogonalEdgeStyle;rounded=0;orthogonalLoop=1;jettySize=auto;html=1;entryX=0;entryY=0;entryDx=0;entryDy=30.25;entryPerimeter=0;" edge="1" parent="1" source="6e0c8c40b5770093-28" target="iW_rK__zYwqqhJCxbNX6-15">
          <mxGeometry relative="1" as="geometry" />
        </mxCell>
        <mxCell id="6e0c8c40b5770093-28" value="DATA PROCESSING&amp;nbsp;" style="shape=folder;fontStyle=1;spacingTop=10;tabWidth=50;tabHeight=17;tabPosition=left;html=1;rounded=0;shadow=0;comic=0;labelBackgroundColor=none;strokeWidth=1;fontFamily=Verdana;fontSize=10;align=center;" parent="1" vertex="1">
          <mxGeometry x="500" y="1410" width="160" height="70" as="geometry" />
        </mxCell>
        <mxCell id="iW_rK__zYwqqhJCxbNX6-66" style="edgeStyle=orthogonalEdgeStyle;rounded=0;orthogonalLoop=1;jettySize=auto;html=1;entryX=0;entryY=0;entryDx=95;entryDy=17;entryPerimeter=0;" edge="1" parent="1" source="iW_rK__zYwqqhJCxbNX6-27" target="iW_rK__zYwqqhJCxbNX6-15">
          <mxGeometry relative="1" as="geometry" />
        </mxCell>
        <mxCell id="iW_rK__zYwqqhJCxbNX6-27" value="VANTAGE_POINTS &amp;amp; TARGETS" style="shape=folder;fontStyle=1;spacingTop=10;tabWidth=50;tabHeight=17;tabPosition=left;html=1;rounded=0;shadow=0;comic=0;labelBackgroundColor=none;strokeWidth=1;fontFamily=Verdana;fontSize=10;align=center;" vertex="1" parent="1">
          <mxGeometry x="870" y="1540" width="192" height="90" as="geometry" />
        </mxCell>
        <mxCell id="iW_rK__zYwqqhJCxbNX6-28" value="" style="shape=folder;fontStyle=1;spacingTop=10;tabWidth=194;tabHeight=22;tabPosition=left;html=1;rounded=0;shadow=0;comic=0;labelBackgroundColor=none;strokeWidth=1;fillColor=none;fontFamily=Verdana;fontSize=10;align=center;" vertex="1" parent="1">
          <mxGeometry x="40" y="1730" width="290" height="210" as="geometry" />
        </mxCell>
        <mxCell id="iW_rK__zYwqqhJCxbNX6-29" value="AFRINIC" style="text;html=1;strokeColor=none;fillColor=none;align=center;verticalAlign=middle;whiteSpace=wrap;rounded=0;" vertex="1" parent="1">
          <mxGeometry x="-20" y="1734" width="184" height="20" as="geometry" />
        </mxCell>
        <mxCell id="iW_rK__zYwqqhJCxbNX6-32" value="" style="shape=folder;fontStyle=1;spacingTop=10;tabWidth=194;tabHeight=22;tabPosition=left;html=1;rounded=0;shadow=0;comic=0;labelBackgroundColor=none;strokeWidth=1;fillColor=none;fontFamily=Verdana;fontSize=10;align=center;" vertex="1" parent="1">
          <mxGeometry x="17" y="1430" width="290" height="210" as="geometry" />
        </mxCell>
        <mxCell id="iW_rK__zYwqqhJCxbNX6-33" value="RIPE ATLAS&amp;nbsp;" style="text;html=1;strokeColor=none;fillColor=none;align=center;verticalAlign=middle;whiteSpace=wrap;rounded=0;" vertex="1" parent="1">
          <mxGeometry x="17" y="1430" width="100" height="20" as="geometry" />
        </mxCell>
        <mxCell id="iW_rK__zYwqqhJCxbNX6-52" style="edgeStyle=orthogonalEdgeStyle;rounded=0;orthogonalLoop=1;jettySize=auto;html=1;entryX=0;entryY=0;entryDx=192.00000000000003;entryDy=71.75;entryPerimeter=0;exitX=0.391;exitY=0;exitDx=0;exitDy=0;exitPerimeter=0;" edge="1" parent="1" source="iW_rK__zYwqqhJCxbNX6-35" target="iW_rK__zYwqqhJCxbNX6-38">
          <mxGeometry relative="1" as="geometry" />
        </mxCell>
        <mxCell id="iW_rK__zYwqqhJCxbNX6-62" style="edgeStyle=orthogonalEdgeStyle;rounded=0;orthogonalLoop=1;jettySize=auto;html=1;entryX=0.5;entryY=1;entryDx=0;entryDy=0;entryPerimeter=0;" edge="1" parent="1" source="iW_rK__zYwqqhJCxbNX6-34" target="iW_rK__zYwqqhJCxbNX6-15">
          <mxGeometry relative="1" as="geometry">
            <Array as="points">
              <mxPoint x="860" y="1860" />
            </Array>
          </mxGeometry>
        </mxCell>
        <mxCell id="iW_rK__zYwqqhJCxbNX6-34" value="" style="shape=folder;fontStyle=1;spacingTop=10;tabWidth=194;tabHeight=22;tabPosition=left;html=1;rounded=0;shadow=0;comic=0;labelBackgroundColor=none;strokeWidth=1;fillColor=none;fontFamily=Verdana;fontSize=10;align=center;" vertex="1" parent="1">
          <mxGeometry x="1120" y="1780" width="290" height="210" as="geometry" />
        </mxCell>
        <mxCell id="iW_rK__zYwqqhJCxbNX6-35" value="TOPOLOGY VISUALISATION" style="text;html=1;strokeColor=none;fillColor=none;align=center;verticalAlign=middle;whiteSpace=wrap;rounded=0;" vertex="1" parent="1">
          <mxGeometry x="1120" y="1780" width="184" height="20" as="geometry" />
        </mxCell>
        <mxCell id="iW_rK__zYwqqhJCxbNX6-59" style="edgeStyle=orthogonalEdgeStyle;rounded=0;orthogonalLoop=1;jettySize=auto;html=1;entryX=0;entryY=0;entryDx=140;entryDy=43.5;entryPerimeter=0;" edge="1" parent="1" source="iW_rK__zYwqqhJCxbNX6-38" target="iW_rK__zYwqqhJCxbNX6-15">
          <mxGeometry relative="1" as="geometry">
            <Array as="points">
              <mxPoint x="1042" y="1670" />
              <mxPoint x="1042" y="1814" />
            </Array>
          </mxGeometry>
        </mxCell>
        <mxCell id="iW_rK__zYwqqhJCxbNX6-38" value="API_CONTROLLER" style="shape=folder;fontStyle=1;spacingTop=10;tabWidth=50;tabHeight=17;tabPosition=left;html=1;rounded=0;shadow=0;comic=0;labelBackgroundColor=none;strokeWidth=1;fontFamily=Verdana;fontSize=10;align=center;" vertex="1" parent="1">
          <mxGeometry x="1154" y="1610" width="192" height="90" as="geometry" />
        </mxCell>
        <mxCell id="iW_rK__zYwqqhJCxbNX6-41" value="" style="shape=folder;fontStyle=1;spacingTop=10;tabWidth=194;tabHeight=22;tabPosition=left;html=1;rounded=0;shadow=0;comic=0;labelBackgroundColor=none;strokeWidth=1;fillColor=none;fontFamily=Verdana;fontSize=10;align=center;" vertex="1" parent="1">
          <mxGeometry x="400" y="1810" width="290" height="210" as="geometry" />
        </mxCell>
        <mxCell id="iW_rK__zYwqqhJCxbNX6-42" value="MAXMIND" style="shape=folder;fontStyle=1;spacingTop=10;tabWidth=50;tabHeight=17;tabPosition=left;html=1;rounded=0;shadow=0;comic=0;labelBackgroundColor=none;strokeWidth=1;fontFamily=Verdana;fontSize=10;align=center;" vertex="1" parent="1">
          <mxGeometry x="414" y="1840" width="112" height="70" as="geometry" />
        </mxCell>
        <mxCell id="iW_rK__zYwqqhJCxbNX6-43" value="GEOLOCATION&amp;nbsp;" style="text;html=1;strokeColor=none;fillColor=none;align=center;verticalAlign=middle;whiteSpace=wrap;rounded=0;" vertex="1" parent="1">
          <mxGeometry x="414" y="1810" width="100" height="20" as="geometry" />
        </mxCell>
        <mxCell id="iW_rK__zYwqqhJCxbNX6-44" value="IP2LOCATION" style="shape=folder;fontStyle=1;spacingTop=10;tabWidth=50;tabHeight=17;tabPosition=left;html=1;rounded=0;shadow=0;comic=0;labelBackgroundColor=none;strokeWidth=1;fontFamily=Verdana;fontSize=10;align=center;" vertex="1" parent="1">
          <mxGeometry x="550" y="1900" width="112" height="70" as="geometry" />
        </mxCell>
        <mxCell id="iW_rK__zYwqqhJCxbNX6-56" style="edgeStyle=orthogonalEdgeStyle;rounded=0;orthogonalLoop=1;jettySize=auto;html=1;entryX=0;entryY=0;entryDx=242;entryDy=22;entryPerimeter=0;exitX=0.619;exitY=0.271;exitDx=0;exitDy=0;exitPerimeter=0;" edge="1" parent="1" source="6e0c8c40b5770093-31" target="iW_rK__zYwqqhJCxbNX6-32">
          <mxGeometry relative="1" as="geometry">
            <mxPoint x="1262.0149999999999" y="1364" as="sourcePoint" />
            <mxPoint x="318.0000000000002" y="1400" as="targetPoint" />
            <Array as="points">
              <mxPoint x="1281" y="1380" />
              <mxPoint x="259" y="1380" />
            </Array>
          </mxGeometry>
        </mxCell>
        <mxCell id="iW_rK__zYwqqhJCxbNX6-60" style="edgeStyle=orthogonalEdgeStyle;rounded=0;orthogonalLoop=1;jettySize=auto;html=1;entryX=0;entryY=0;entryDx=25;entryDy=0;entryPerimeter=0;" edge="1" parent="1" source="6e0c8c40b5770093-31" target="iW_rK__zYwqqhJCxbNX6-15">
          <mxGeometry relative="1" as="geometry" />
        </mxCell>
        <mxCell id="iW_rK__zYwqqhJCxbNX6-61" style="edgeStyle=orthogonalEdgeStyle;rounded=0;orthogonalLoop=1;jettySize=auto;html=1;entryX=0;entryY=0;entryDx=192;entryDy=71.75;entryPerimeter=0;" edge="1" parent="1" source="6e0c8c40b5770093-31" target="iW_rK__zYwqqhJCxbNX6-27">
          <mxGeometry relative="1" as="geometry">
            <Array as="points">
              <mxPoint x="1265" y="1540" />
              <mxPoint x="1122" y="1540" />
              <mxPoint x="1122" y="1612" />
            </Array>
          </mxGeometry>
        </mxCell>
        <mxCell id="6e0c8c40b5770093-31" value="MEASUREMENTS" style="shape=folder;fontStyle=1;spacingTop=10;tabWidth=50;tabHeight=17;tabPosition=left;html=1;rounded=0;shadow=0;comic=0;labelBackgroundColor=none;strokeWidth=1;fontFamily=Verdana;fontSize=10;align=center;" parent="1" vertex="1">
          <mxGeometry x="1197.5" y="1450" width="135" height="70" as="geometry" />
        </mxCell>
        <mxCell id="iW_rK__zYwqqhJCxbNX6-73" style="edgeStyle=orthogonalEdgeStyle;rounded=0;orthogonalLoop=1;jettySize=auto;html=1;exitX=0.5;exitY=1;exitDx=0;exitDy=0;" edge="1" parent="1" source="iW_rK__zYwqqhJCxbNX6-29" target="iW_rK__zYwqqhJCxbNX6-29">
          <mxGeometry relative="1" as="geometry" />
        </mxCell>
      </root>
    </mxGraphModel>
  </diagram>
</mxfile>
